<svg width="100%" height="100%" viewBox="0 0 500 500" version="1.1" xmlns="http://www.w3.org/2000/svg" xml:space="preserve" style="fill-rule:evenodd;clip-rule:evenodd;stroke-linecap:round;stroke-linejoin:round;">
  <g transform="matrix(0.794637,0,0,0.794637,564.793,-311.822)">
    <g transform="matrix(1.20118,0,0,1.58435,-749.427,331.012)">
      <path d="M429.341,97.553L429.341,377.097C429.341,409.55 394.588,435.898 351.782,435.898L109.753,435.898C66.947,435.898 32.194,409.55 32.194,377.097L32.194,97.553C32.194,65.099 66.947,38.751 109.753,38.751L351.782,38.751C394.588,38.751 429.341,65.099 429.341,97.553Z" style="fill:rgb(226,226,226);"/>
      <path d="M429.341,97.553L429.341,377.097C429.341,409.55 394.588,435.898 351.782,435.898L109.753,435.898C66.947,435.898 32.194,409.55 32.194,377.097L32.194,97.553C32.194,65.099 66.947,38.751 109.753,38.751L351.782,38.751C394.588,38.751 429.341,65.099 429.341,97.553ZM136.96,118.181L136.96,356.469L324.574,356.469L324.574,118.181L136.96,118.181Z" style="fill:rgb(225,122,94);"/>
    </g>
    <g transform="matrix(41.6181,17.8438,-17.8438,41.6181,-473.133,-274.558)">
      <path d="M13,12L10,17L14,17L11,22" style="fill:none;fill-rule:nonzero;stroke:rgb(0,154,201);stroke-width:2.78px;"/>
    </g>
  </g>
</svg>
